@startuml
title Mainframe Facade Class Diagram

note left of MainframeFacade: Abstracts the connection and integration details \nto the legacy mainframe system.

package "Mainframe Facade" as MainframeFacade {
  class MainframeFacade.AbstractRequest {
  }

  class MainframeFacade.AbstractResponse {
  }

  class MainframeFacade.BankingSystemConnection {
  }

  class MainframeFacade.GetBalanceRequest {
  }

  class MainframeFacade.GetBalanceResponse {
  }

  class MainframeFacade.ManframeBankingSystemException {
  }

  interface MainframeFacade.MainframeBankingSystemFacade {
  }

  class MainframeFacade.MainframeBankingSystemFacadeImpl {
  }
}

package "" as  {
   . {
  }
}package "Internet Banking System Common" as InternetBankingSystemCommon {
  class InternetBankingSystemCommon.InternetBankingSystemException {
  }
}

MainframeFacade.BankingSystemConnection --> MainframeFacade.AbstractRequest: sends
MainframeFacade.BankingSystemConnection --> MainframeFacade.AbstractResponse: receives
MainframeFacade.BankingSystemConnection --> .: uses
MainframeFacade.GetBalanceRequest --|> MainframeFacade.AbstractRequest: extends
MainframeFacade.GetBalanceResponse --|> MainframeFacade.AbstractResponse: extends
MainframeFacade.ManframeBankingSystemException --|> InternetBankingSystemCommon.InternetBankingSystemException: extends
MainframeFacade.MainframeBankingSystemFacadeImpl --> MainframeFacade.ManframeBankingSystemException: throws
MainframeFacade.MainframeBankingSystemFacadeImpl --> MainframeFacade.GetBalanceRequest: creates
MainframeFacade.MainframeBankingSystemFacadeImpl --> MainframeFacade.GetBalanceResponse: parses
MainframeFacade.MainframeBankingSystemFacadeImpl --> MainframeFacade.BankingSystemConnection: uses
MainframeFacade.MainframeBankingSystemFacadeImpl -up- MainframeFacade.MainframeBankingSystemFacade: provides
@enduml